<svg height='45px' width='45px'
  fill="#FF0000"
  xmlns="http://www.w3.org/2000/svg"
  xmlns:xlink="http://www.w3.org/1999/xlink"
  version="1.1" x="0px" y="0px"
  viewBox="0 0 992.1 992.1"
>
    <polygon points="760.4,353 760.4,545.2 712.3,545.2 712.3,593.3 664.3,593.3 664.3,641.3 616.2,641.3 616.2,689.4 568.1,689.4   568.1,737.4 520.1,737.4 520.1,785.5 472,785.5 472,737.4 424,737.4 424,689.4 375.9,689.4 375.9,641.3 327.9,641.3 327.9,593.3   279.8,593.3 279.8,545.2 231.7,545.2 231.7,353 279.8,353 279.8,304.9 327.9,304.9 327.9,256.9 424,256.9 424,304.9 472,304.9   472,353 520.1,353 520.1,304.9 568.1,304.9 568.1,256.9 664.3,256.9 664.3,304.9 712.3,304.9 712.3,353 ">
    </polygon>
</svg>
